<?xml version="1.0" encoding="UTF-8" standalone="no"?>
<!-- Created with Inkscape (http://www.inkscape.org/) -->

<svg
   xmlns:dc="http://purl.org/dc/elements/1.1/"
   xmlns:cc="http://creativecommons.org/ns#"
   xmlns:rdf="http://www.w3.org/1999/02/22-rdf-syntax-ns#"
   xmlns:svg="http://www.w3.org/2000/svg"
   xmlns="http://www.w3.org/2000/svg"
   xmlns:sodipodi="http://sodipodi.sourceforge.net/DTD/sodipodi-0.dtd"
   xmlns:inkscape="http://www.inkscape.org/namespaces/inkscape"
   width="364.39999"
   height="109.39993"
   id="svg2"
   version="1.1"
   inkscape:version="0.48.4 r9939"
   sodipodi:docname="logo.svg">
  <defs
     id="defs4">
    <inkscape:perspective
       sodipodi:type="inkscape:persp3d"
       inkscape:vp_x="-2.4358488 : 416.97386 : 1"
       inkscape:vp_y="0 : 1000 : 0"
       inkscape:vp_z="716.89417 : 463.66097 : 1"
       inkscape:persp3d-origin="344.84693 : 288.26727 : 1"
       id="perspective2987" />
  </defs>
  <sodipodi:namedview
     id="base"
     pagecolor="#ffffff"
     bordercolor="#666666"
     borderopacity="1.0"
     inkscape:pageopacity="0.0"
     inkscape:pageshadow="2"
     inkscape:zoom="3.6668197"
     inkscape:cx="145.76883"
     inkscape:cy="47.863434"
     inkscape:document-units="px"
     inkscape:current-layer="text2993"
     showgrid="true"
     inkscape:window-width="1920"
     inkscape:window-height="1017"
     inkscape:window-x="-8"
     inkscape:window-y="-8"
     inkscape:window-maximized="1"
     fit-margin-top="10"
     fit-margin-left="10"
     fit-margin-bottom="10"
     fit-margin-right="10">
    <inkscape:grid
       type="xygrid"
       id="grid2985"
       empspacing="5"
       visible="true"
       enabled="true"
       snapvisiblegridlinesonly="true"
       originx="-72.8px"
       originy="-542.80008px" />
  </sodipodi:namedview>
  <metadata
     id="metadata7">
    <rdf:RDF>
      <cc:Work
         rdf:about="">
        <dc:format>image/svg+xml</dc:format>
        <dc:type
           rdf:resource="http://purl.org/dc/dcmitype/StillImage" />
        <dc:title></dc:title>
      </cc:Work>
    </rdf:RDF>
  </metadata>
  <g
     inkscape:label="Layer 1"
     inkscape:groupmode="layer"
     id="layer1"
     transform="translate(-72.8,-400.16218)">
    <rect
       style="fill:#383838;fill-opacity:1;stroke:#727272;stroke-width:4.4000001;stroke-miterlimit:4;stroke-opacity:1;stroke-dasharray:none"
       id="rect3000"
       width="340"
       height="84.999924"
       x="85"
       y="412.36218" />
    <path
       style="fill:#001288;fill-opacity:1;stroke:#ffffff;stroke-width:1px;stroke-linecap:butt;stroke-linejoin:miter;stroke-opacity:1"
       d="m 130,477.36218 15,-15 -40,-40 -5,45 10,-10 z"
       id="path3027"
       inkscape:connector-curvature="0"
       sodipodi:nodetypes="cccccc" />
    <path
       sodipodi:type="arc"
       style="fill:#001288;fill-opacity:1;stroke:#ffffff;stroke-opacity:1"
       id="path3025"
       sodipodi:cx="137.5"
       sodipodi:cy="469.86218"
       sodipodi:rx="7.5"
       sodipodi:ry="7.5"
       d="m 145,469.86218 c 0,4.14214 -3.35786,7.5 -7.5,7.5 -4.14214,0 -7.5,-3.35786 -7.5,-7.5 0,-4.14213 3.35786,-7.5 7.5,-7.5 4.14214,0 7.5,3.35787 7.5,7.5 z"
       transform="matrix(1.3247798,0,0,1.3247798,-42.221379,-150.16591)" />
    <path
       style="fill:#216da8;fill-opacity:1;stroke:#ffffff;stroke-width:1px;stroke-linecap:butt;stroke-linejoin:miter;stroke-opacity:1"
       d="m 143.40643,430.61182 -15.20213,14.7951 39.4536,40.53903 5.61012,-44.92801 -10.13475,9.86339 z"
       id="path3027-1"
       inkscape:connector-curvature="0"
       sodipodi:nodetypes="cccccc" />
    <path
       sodipodi:type="arc"
       style="fill:#216da8;fill-opacity:1;stroke:#ffffff;stroke-width:1;stroke-opacity:1"
       id="path3025-7"
       sodipodi:cx="137.5"
       sodipodi:cy="469.86218"
       sodipodi:rx="7.5"
       sodipodi:ry="7.5"
       d="m 145,469.86218 c 0,4.14214 -3.35786,7.5 -7.5,7.5 -4.14214,0 -7.5,-3.35786 -7.5,-7.5 0,-4.14213 3.35786,-7.5 7.5,-7.5 4.14214,0 7.5,3.35787 7.5,7.5 z"
       transform="matrix(-1.3246578,-0.01797444,0.01797444,-1.3246578,307.09774,1060.4188)" />
    <g
       style="font-size:9px;font-style:normal;font-variant:normal;font-weight:bold;font-stretch:normal;text-align:start;line-height:125%;letter-spacing:0px;word-spacing:0px;text-anchor:start;fill:#b0bbff;fill-opacity:1;stroke:none;font-family:Segoe UI;-inkscape-font-specification:Segoe UI Bold"
       id="text2993">
      <path
         id="path3012"
         style="font-size:65px;font-weight:normal;fill:#b0bbff;font-family:Quicksand;-inkscape-font-specification:Quicksand"
         d="m 406.74149,440.51282 c 0.91112,0.21691 1.3667,0.7148 1.36673,1.49368 l 0,27.82059 c -3e-5,4.16036 -1.47355,7.69223 -4.42055,10.59562 -2.94706,2.90338 -6.52191,4.35508 -10.72457,4.35509 -2.16747,-1e-5 -4.35608,-0.49857 -6.56585,-1.49566 -0.8662,-0.56337 -1.09366,-1.24574 -0.68238,-2.04712 0.41127,-0.8014 1.09364,-1.0725 2.04712,-0.8133 1.64642,0.82387 3.38012,1.2358 5.20111,1.23581 3.29283,-1e-5 6.10927,-1.14854 8.44933,-3.44559 2.34001,-2.29706 3.53185,-5.09201 3.57552,-8.38485 l 0,-2.08084 c -2.6872,3.03365 -5.89409,4.53956 -9.62067,4.51774 -3.72662,-0.0218 -6.84655,-1.29994 -9.35982,-3.83438 -2.51328,-2.53443 -3.76991,-5.57832 -3.76991,-9.1317 l 0,-17.29141 c 0,-0.4324 0.15174,-0.78946 0.45524,-1.07117 0.3035,-0.28164 0.67179,-0.42248 1.10489,-0.42251 0.43309,3e-5 0.80139,0.14087 1.10489,0.42251 0.30349,0.28171 0.45524,0.63877 0.45525,1.07117 l 0,17.29141 c -1e-5,2.72951 0.95313,5.04772 2.85942,6.95465 1.90627,1.90695 4.21357,2.86042 6.92192,2.86042 2.70831,0 5.01595,-0.95347 6.92291,-2.86042 1.90692,-1.90693 2.88221,-4.22514 2.92588,-6.95465 l 0,-17.29141 c -3e-5,-0.34645 0.0433,-0.56299 0.12992,-0.64964 0.0866,-0.0866 0.1514,-0.1623 0.1944,-0.22713 0.0429,-0.0648 0.0644,-0.0972 0.0645,-0.0972 -3e-5,-0.1732 0.21685,-0.32528 0.65063,-0.45624 l 0.13092,0 c 0.0859,-0.0423 0.15073,-0.0634 0.1944,-0.0635 z m -38.31009,0 c 0.3901,3e-5 0.74781,0.16236 1.07315,0.48698 0.3253,0.32469 0.48796,0.68207 0.48797,1.07216 -1e-5,0.39015 -0.16267,0.74786 -0.48797,1.07315 -0.32534,0.32535 -0.68305,0.48801 -1.07315,0.48798 l -4.09424,0 0,23.20465 c -10e-6,0.69296 0.27075,1.25598 0.8123,1.68907 0.54152,0.4331 1.02884,0.64965 1.46194,0.64964 0.43309,1e-5 0.8232,0.17357 1.17035,0.52071 0.34713,0.34714 0.52069,0.71543 0.52071,1.10489 -2e-5,0.38945 -0.17358,0.74684 -0.52071,1.07216 -0.34715,0.32531 -0.71511,0.48797 -1.10389,0.48797 -1.60412,0 -2.9368,-0.52004 -3.99804,-1.56013 -1.06125,-1.04009 -1.59188,-2.36152 -1.59187,-3.96431 l 0,-23.20465 -3.9653,0 c -0.69428,3e-5 -1.12803,-0.13023 -1.30127,-0.39078 -0.17324,-0.26049 -0.25986,-0.6073 -0.25986,-1.04042 0,-0.43307 0.0218,-0.73623 0.0655,-0.9095 0.1296,-0.51968 0.62815,-0.77954 1.49567,-0.77957 l 3.9653,0 0,-11.83045 c -10e-6,-0.39007 0.16232,-0.74779 0.48699,-1.07315 0.32464,-0.32527 0.69294,-0.48793 1.10488,-0.48797 0.41193,4e-5 0.79114,0.1627 1.13762,0.48797 0.34647,0.32536 0.51971,0.68308 0.51972,1.07315 l 0,11.83045 z m -27.771,30.29022 0,-28.73108 c -10e-6,-0.43373 0.15174,-0.80202 0.45525,-1.10489 0.30349,-0.3028 0.68269,-0.45422 1.13762,-0.45425 0.4549,3e-5 0.83411,0.15145 1.13761,0.45425 0.30349,0.30287 0.45524,0.67116 0.45525,1.10489 l 0,28.73108 c -1e-5,0.43243 -0.16267,0.8004 -0.48798,1.1039 -0.32532,0.30349 -0.70453,0.45524 -1.13761,0.45524 -0.43311,0 -0.8014,-0.15175 -1.10489,-0.45524 -0.30351,-0.3035 -0.45526,-0.67147 -0.45525,-1.1039 z m 0,-37.63565 0,-1.49567 c -10e-6,-0.43239 0.15174,-0.80036 0.45525,-1.10389 0.30349,-0.30346 0.67178,-0.45521 1.10489,-0.45525 0.43308,4e-5 0.81229,0.15179 1.13761,0.45525 0.32531,0.30353 0.48797,0.6715 0.48798,1.10389 l 0,1.49567 c -1e-5,0.47611 -0.16267,0.87681 -0.48798,1.20209 -0.32532,0.32535 -0.70453,0.48801 -1.13761,0.48797 -0.43311,4e-5 -0.8014,-0.16262 -1.10489,-0.48797 -0.30351,-0.32528 -0.45526,-0.72598 -0.45525,-1.20209 z m -25.28748,37.95898 c -0.0423,0.26052 -0.18284,0.53162 -0.42152,0.8133 -0.23872,0.28167 -0.54221,0.42251 -0.91049,0.42251 -0.36831,0 -0.7257,-0.0866 -1.07216,-0.25985 -0.26053,-0.26052 -0.43377,-0.49922 -0.51971,-0.7161 l -11.95939,-28.46924 c -0.17456,-0.39008 -0.17456,-0.7802 0,-1.17035 0.43243,-0.95344 1.08241,-1.23511 1.94993,-0.84503 0.43242,0.17327 0.7141,0.45495 0.84503,0.84503 l 10.59463,25.0911 10.59464,-25.0911 c 0.12957,-0.39008 0.40033,-0.67176 0.8123,-0.84503 0.41191,-0.17321 0.81293,-0.17321 1.20308,0 0.9098,0.39015 1.16965,1.06194 0.77957,2.01538 z m -28.80447,-30.1593 c 0.30413,-0.3028 0.67276,-0.45422 1.10588,-0.45425 0.43307,3e-5 0.80136,0.15145 1.10489,0.45425 0.30347,0.30287 0.45521,0.67116 0.45525,1.10489 l 0,28.73108 c -4e-5,0.43243 -0.15178,0.8004 -0.45525,1.1039 -0.30353,0.30349 -0.67182,0.45524 -1.10489,0.45524 -0.43312,0 -0.80142,-0.15175 -1.10489,-0.45524 -0.30352,-0.3035 -0.45527,-0.67147 -0.45524,-1.1039 l 0,-4.74487 c -1.38594,1.94926 -3.12989,3.48724 -5.23186,4.61395 -2.10202,1.12671 -4.34453,1.69006 -6.72752,1.69006 -4.16038,0 -7.71374,-1.56013 -10.6601,-4.6804 -2.94637,-3.12026 -4.41956,-6.86868 -4.41956,-11.24527 0,-4.37656 1.47319,-8.12465 4.41956,-11.24428 2.94636,-3.11958 6.49972,-4.67938 10.6601,-4.67941 2.38299,3e-5 4.6255,0.56338 6.72752,1.69006 2.10197,1.12674 3.84592,2.6429 5.23186,4.54849 l 0,-4.67941 c -3e-5,-0.43373 0.15139,-0.80202 0.45425,-1.10489 z m -24.37302,15.47043 c 0,3.55338 1.1806,6.57578 3.5418,9.06723 2.36118,2.49146 5.17762,3.73719 8.44932,3.73718 3.27167,10e-6 6.07753,-1.24572 8.41759,-3.73718 2.34001,-2.49145 3.51003,-5.51385 3.51006,-9.06723 -3e-5,-3.55335 -1.17005,-6.58666 -3.51006,-9.09996 -2.34006,-2.51325 -5.14592,-3.76988 -8.41759,-3.76991 -3.2717,3e-5 -6.08814,1.25666 -8.44932,3.76991 -2.3612,2.5133 -3.5418,5.54661 -3.5418,9.09996 z m -28.24111,14.36554 0,-28.66562 c -1e-5,-0.43373 0.15174,-0.80235 0.45524,-1.10588 0.30349,-0.30347 0.67212,-0.45521 1.10588,-0.45525 0.43375,4e-5 0.80205,0.15178 1.10489,0.45525 0.30283,0.30353 0.45425,0.67215 0.45425,1.10588 l 0,7.02011 c 0.17323,-0.34645 0.32531,-0.60631 0.45624,-0.77957 3.33648,-5.20108 7.58279,-7.80163 12.73896,-7.80167 0.43373,4e-5 0.80236,0.15178 1.10588,0.45525 0.30347,0.30353 0.45522,0.67215 0.45524,1.10588 -2e-5,0.43379 -0.15177,0.80208 -0.45524,1.10489 -0.30352,0.30286 -0.67215,0.45428 -1.10588,0.45425 -3.46611,3e-5 -6.54273,1.73373 -9.22989,5.20111 -1.56048,2.08021 -2.83861,4.54984 -3.83438,7.40891 -0.0873,0.17325 -0.13093,0.34649 -0.13093,0.51971 l 0,13.97675 c 0,0.43243 -0.15142,0.8004 -0.45425,1.1039 -0.30284,0.30349 -0.67114,0.45524 -1.10489,0.45524 -0.43376,0 -0.80239,-0.15175 -1.10588,-0.45524 -0.3035,-0.3035 -0.45525,-0.67147 -0.45524,-1.1039 z m -15.08957,-28.73108 0,27.75513 c -4e-5,4.11672 -1.46264,7.63768 -4.38782,10.56289 -2.92524,2.9252 -6.46736,4.38781 -10.62637,4.38782 -2.12384,-1e-5 -4.33428,-0.49857 -6.63132,-1.49566 -0.8662,-0.60701 -1.08242,-1.30062 -0.64865,-2.08085 0.47606,-0.99579 1.16901,-1.23383 2.07885,-0.71411 1.64641,0.78023 3.38011,1.17034 5.20112,1.17035 3.29282,-1e-5 6.09835,-1.14854 8.41659,-3.44559 2.31819,-2.29706 3.4773,-5.09201 3.47733,-8.38485 l 0,-3.89984 c -1.34362,1.95058 -3.05517,3.47832 -5.13466,4.5832 -2.07954,1.10489 -4.33263,1.65734 -6.75926,1.65734 -4.16038,0 -7.69225,-1.54923 -10.59563,-4.64768 -2.9034,-3.09844 -4.35509,-6.82504 -4.35509,-11.17981 0,-4.35473 1.4626,-8.08133 4.38782,-11.17981 2.9252,-3.09842 6.44616,-4.64764 10.5629,-4.64767 2.38299,3e-5 4.62517,0.56338 6.72653,1.69006 2.10131,1.12674 3.82377,2.6429 5.16739,4.54849 l 0,-4.67941 c -3e-5,-0.43373 0.16262,-0.80202 0.48797,-1.10489 0.32529,-0.3028 0.69358,-0.45422 1.10489,-0.45425 0.41124,3e-5 0.76863,0.15145 1.07216,0.45425 0.30346,0.30287 0.45521,0.67116 0.45525,1.10489 z m -26.84464,14.26834 c -10e-6,3.5309 1.1591,6.54239 3.47733,9.0345 2.3182,2.49212 5.11315,3.73818 8.38485,3.73818 3.27167,0 6.06662,-1.24606 8.38486,-3.73818 2.31819,-2.49211 3.4773,-5.51484 3.47733,-9.06822 -3e-5,-3.55335 -1.15914,-6.55393 -3.47733,-9.00177 -2.31824,-2.44779 -5.11319,-3.67169 -8.38486,-3.67172 -3.2717,3e-5 -6.06665,1.23484 -8.38485,3.70445 -2.31823,2.46966 -3.47734,5.47057 -3.47733,9.00276 z" />
    </g>
  </g>
</svg>
